<?xml version="1.0" encoding="iso-8859-1"?>
<!-- Generator: Adobe Illustrator 26.1.0, SVG Export Plug-In . SVG Version: 6.00 Build 0)  -->
<svg version="1.1" id="Tone" xmlns="http://www.w3.org/2000/svg" xmlns:xlink="http://www.w3.org/1999/xlink" x="0px" y="0px"
	 viewBox="0 0 50 50" style="enable-background:new 0 0 50 50;" xml:space="preserve">
<g id="Line">
</g>
<g>
	<g>
		<path d="M19,15c-1.654,0-3,1.346-3,3v14c0,1.654,1.346,3,3,3s3-1.346,3-3V18C22,16.346,20.654,15,19,15z"/>
	</g>
	<g>
		<path d="M24,21h8c1.654,0,3-1.346,3-3s-1.346-3-3-3h-9.026C23.609,15.838,24,16.87,24,18V21z"/>
	</g>
	<g>
		<path d="M5,5v40h40V5H5z M35.537,35.503c-0.975,0.975-2.255,1.462-3.535,1.462s-2.561-0.487-3.535-1.462L24,31.036V32
			c0,2.757-2.243,5-5,5s-5-2.243-5-5V18c0-2.757,2.243-5,5-5h13c2.757,0,5,2.243,5,5s-2.243,5-5,5h-1.105l4.695,5.488
			C37.486,30.381,37.486,33.554,35.537,35.503z"/>
	</g>
	<g>
		<path d="M28.263,23H24v5.244c0.034,0.026,0.075,0.039,0.106,0.071l5.774,5.774c1.17,1.17,3.072,1.17,4.242,0s1.17-3.073,0-4.243
			L28.263,23z"/>
	</g>
</g>
</svg>