<svg width="1200" height="800" viewBox="0 0 1200 800" fill="none" xmlns="http://www.w3.org/2000/svg">
  <rect width="1200" height="800" fill="#F8FAFC"/>
  <rect x="100" y="100" width="1000" height="600" rx="12" fill="white" stroke="#E2E8F0" stroke-width="2"/>
  <rect x="150" y="150" width="100" height="40" rx="6" fill="#6366F1"/>
  <rect x="270" y="150" width="80" height="40" rx="6" fill="#F1F5F9" stroke="#6366F1" stroke-width="1"/>
  <rect x="370" y="150" width="80" height="40" rx="6" fill="#F1F5F9" stroke="#6366F1" stroke-width="1"/>
  <rect x="470" y="150" width="80" height="40" rx="6" fill="#F1F5F9" stroke="#6366F1" stroke-width="1"/>
  <text x="200" y="175" font-family="Arial, sans-serif" font-size="14" font-weight="600" fill="white" text-anchor="middle">Home</text>
  <text x="310" y="175" font-family="Arial, sans-serif" font-size="14" font-weight="600" fill="#6366F1" text-anchor="middle">About</text>
  <text x="410" y="175" font-family="Arial, sans-serif" font-size="14" font-weight="600" fill="#6366F1" text-anchor="middle">Projects</text>
  <text x="510" y="175" font-family="Arial, sans-serif" font-size="14" font-weight="600" fill="#6366F1" text-anchor="middle">Contact</text>
  <rect x="150" y="220" width="900" height="2" fill="#E2E8F0"/>
  <circle cx="250" cy="320" r="60" fill="#F1F5F9" stroke="#6366F1" stroke-width="2"/>
  <text x="250" y="330" font-family="Arial, sans-serif" font-size="20" font-weight="600" fill="#6366F1" text-anchor="middle">👨‍💻</text>
  <rect x="350" y="280" width="200" height="24" rx="4" fill="#6366F1"/>
  <rect x="350" y="320" width="150" height="16" rx="4" fill="#94A3B8"/>
  <rect x="350" y="350" width="180" height="16" rx="4" fill="#94A3B8"/>
  <rect x="150" y="420" width="900" height="200" rx="8" fill="#F8FAFC" stroke="#E2E8F0" stroke-width="1"/>
  <rect x="200" y="460" width="150" height="120" rx="6" fill="#F1F5F9" stroke="#6366F1" stroke-width="1"/>
  <rect x="400" y="460" width="150" height="120" rx="6" fill="#F1F5F9" stroke="#6366F1" stroke-width="1"/>
  <rect x="600" y="460" width="150" height="120" rx="6" fill="#F1F5F9" stroke="#6366F1" stroke-width="1"/>
  <rect x="800" y="460" width="150" height="120" rx="6" fill="#F1F5F9" stroke="#6366F1" stroke-width="1"/>
  <text x="600" y="750" font-family="Arial, sans-serif" font-size="24" font-weight="600" fill="#475569" text-anchor="middle">Portfolio Personnel - Blog</text>
</svg>
