<svg width="1200" height="800" viewBox="0 0 1200 800" fill="none" xmlns="http://www.w3.org/2000/svg">
  <rect width="1200" height="800" fill="#F0FDF4"/>
  <rect x="100" y="100" width="1000" height="600" rx="12" fill="white" stroke="#16A34A" stroke-width="2"/>
  <rect x="150" y="150" width="200" height="40" rx="6" fill="#16A34A"/>
  <text x="250" y="175" font-family="Arial, sans-serif" font-size="16" font-weight="600" fill="white" text-anchor="middle">Stock Manager</text>
  <rect x="900" y="150" width="100" height="40" rx="6" fill="#F0FDF4" stroke="#16A34A" stroke-width="1"/>
  <text x="950" y="175" font-family="Arial, sans-serif" font-size="14" font-weight="600" fill="#16A34A" text-anchor="middle">Logout</text>
  <rect x="150" y="220" width="900" height="2" fill="#D1FAE5"/>
  
  <!-- Tableau de stock -->
  <rect x="150" y="250" width="900" height="40" rx="4" fill="#F0FDF4"/>
  <text x="200" y="275" font-family="Arial, sans-serif" font-size="14" font-weight="600" fill="#15803D">Produit</text>
  <text x="400" y="275" font-family="Arial, sans-serif" font-size="14" font-weight="600" fill="#15803D">Quantité</text>
  <text x="600" y="275" font-family="Arial, sans-serif" font-size="14" font-weight="600" fill="#15803D">Prix</text>
  <text x="800" y="275" font-family="Arial, sans-serif" font-size="14" font-weight="600" fill="#15803D">Statut</text>
  <text x="950" y="275" font-family="Arial, sans-serif" font-size="14" font-weight="600" fill="#15803D">Actions</text>
  
  <!-- Lignes du tableau -->
  <rect x="150" y="290" width="900" height="1" fill="#D1FAE5"/>
  <rect x="150" y="310" width="900" height="40" fill="white"/>
  <text x="200" y="335" font-family="Arial, sans-serif" font-size="12" fill="#374151">T-shirt Rouge M</text>
  <text x="400" y="335" font-family="Arial, sans-serif" font-size="12" fill="#374151">45</text>
  <text x="600" y="335" font-family="Arial, sans-serif" font-size="12" fill="#374151">25.99€</text>
  <rect x="780" y="320" width="40" height="20" rx="10" fill="#16A34A"/>
  <text x="800" y="333" font-family="Arial, sans-serif" font-size="10" font-weight="600" fill="white" text-anchor="middle">Stock</text>
  <rect x="930" y="320" width="40" height="20" rx="4" fill="#EF4444"/>
  <text x="950" y="333" font-family="Arial, sans-serif" font-size="10" font-weight="600" fill="white" text-anchor="middle">Edit</text>
  
  <rect x="150" y="350" width="900" height="40" fill="#F9FAFB"/>
  <text x="200" y="375" font-family="Arial, sans-serif" font-size="12" fill="#374151">Jeans Bleu L</text>
  <text x="400" y="375" font-family="Arial, sans-serif" font-size="12" fill="#374151">12</text>
  <text x="600" y="375" font-family="Arial, sans-serif" font-size="12" fill="#374151">45.99€</text>
  <rect x="780" y="360" width="40" height="20" rx="10" fill="#EAB308"/>
  <text x="800" y="373" font-family="Arial, sans-serif" font-size="10" font-weight="600" fill="white" text-anchor="middle">Bas</text>
  <rect x="930" y="360" width="40" height="20" rx="4" fill="#EF4444"/>
  <text x="950" y="373" font-family="Arial, sans-serif" font-size="10" font-weight="600" fill="white" text-anchor="middle">Edit</text>
  
  <!-- Boutons d'action -->
  <rect x="150" y="600" width="120" height="40" rx="6" fill="#16A34A"/>
  <text x="210" y="625" font-family="Arial, sans-serif" font-size="14" font-weight="600" fill="white" text-anchor="middle">+ Ajouter</text>
  
  <rect x="300" y="600" width="120" height="40" rx="6" fill="#F0FDF4" stroke="#16A34A" stroke-width="1"/>
  <text x="360" y="625" font-family="Arial, sans-serif" font-size="14" font-weight="600" fill="#16A34A" text-anchor="middle">Exporter</text>
  
  <text x="600" y="750" font-family="Arial, sans-serif" font-size="24" font-weight="600" fill="#15803D" text-anchor="middle">Gestion de Stock - Application Mobile</text>
</svg>
